<?xml version="1.0" encoding="UTF-8" standalone="no"?>
<!-- Created with Inkscape (http://www.inkscape.org/) -->

<svg
   id="svg3409"
   sodipodi:docname="store.svg"
   viewBox="0 0 163.72 146.3"
   version="1.1"
   inkscape:version="1.2.2 (b0a8486541, 2022-12-01)"
   xmlns:inkscape="http://www.inkscape.org/namespaces/inkscape"
   xmlns:sodipodi="http://sodipodi.sourceforge.net/DTD/sodipodi-0.dtd"
   xmlns:xlink="http://www.w3.org/1999/xlink"
   xmlns="http://www.w3.org/2000/svg"
   xmlns:svg="http://www.w3.org/2000/svg"
   xmlns:rdf="http://www.w3.org/1999/02/22-rdf-syntax-ns#"
   xmlns:cc="http://creativecommons.org/ns#"
   xmlns:dc="http://purl.org/dc/elements/1.1/">
  <defs
     id="defs3">
    <radialGradient
       id="radialGradient4463"
       xlink:href="#linearGradient4224"
       gradientUnits="userSpaceOnUse"
       cy="71.146"
       cx="864.88"
       gradientTransform="matrix(2.5008 .017051 -.0062385 .91495 -839.45 512.37)"
       r="34.414"
       inkscape:collect="always" />
    <linearGradient
       id="linearGradient4224"
       inkscape:collect="always">
      <stop
         id="stop4226"
         style="stop-color:#b3df00"
         offset="0" />
      <stop
         id="stop4228"
         style="stop-color:#728f00"
         offset="1" />
    </linearGradient>
    <radialGradient
       id="radialGradient4465"
       xlink:href="#linearGradient4224"
       gradientUnits="userSpaceOnUse"
       cy="62.953"
       cx="800.54"
       gradientTransform="matrix(1.4421 -.59759 .24009 .57937 95.084 1032)"
       r="42.373"
       inkscape:collect="always" />
    <radialGradient
       id="radialGradient4467"
       gradientUnits="userSpaceOnUse"
       cy="600.21"
       cx="1245.1"
       gradientTransform="matrix(1.2137 -0.106 .057540 .65885 -301.33 349.2)"
       r="74.417"
       inkscape:collect="always">
      <stop
         id="stop4294"
         style="stop-color:#ffffff"
         offset="0" />
      <stop
         id="stop4300"
         style="stop-color:#ffffff"
         offset=".5" />
      <stop
         id="stop4296"
         style="stop-color:#c7c7c7"
         offset="1" />
    </radialGradient>
    <radialGradient
       id="radialGradient4469"
       xlink:href="#linearGradient4224"
       gradientUnits="userSpaceOnUse"
       cy="667.29"
       cx="1252.3"
       gradientTransform="matrix(-2.1847 .084465 -.20011 -5.176 4108.7 3980.8)"
       r="28.653"
       inkscape:collect="always" />
    <radialGradient
       id="radialGradient4471"
       xlink:href="#linearGradient4224"
       gradientUnits="userSpaceOnUse"
       cy="649.17"
       cx="1335.4"
       gradientTransform="matrix(1.1757 -2.2593 1.6003 .83274 -1301.8 3107.6)"
       r="48.087"
       inkscape:collect="always" />
  </defs>
  <sodipodi:namedview
     id="base"
     fit-margin-left="0"
     inkscape:zoom="4.7221006"
     borderopacity="1.0"
     inkscape:current-layer="layer1"
     inkscape:cx="81.743283"
     inkscape:cy="73.166591"
     inkscape:window-maximized="1"
     showgrid="false"
     fit-margin-right="0"
     units="mm"
     inkscape:document-units="mm"
     bordercolor="#666666"
     inkscape:window-x="-4"
     inkscape:window-y="-4"
     fit-margin-bottom="0"
     inkscape:window-width="1680"
     inkscape:pageopacity="0.0"
     inkscape:pageshadow="2"
     pagecolor="#ffffff"
     inkscape:window-height="1003"
     fit-margin-top="0"
     inkscape:showpageshadow="2"
     inkscape:pagecheckerboard="0"
     inkscape:deskcolor="#d1d1d1" />
  <g
     id="layer1"
     inkscape:label="Layer 1"
     inkscape:groupmode="layer"
     transform="translate(-20.996 -22.067)">
    <g
       id="g4442"
       transform="matrix(.92558 0 0 .87164 -1100.4 -477.74)">
      <path
         id="path4222"
         d="m1300.4 574.26 0.217-0.0408 68.51 28.608-69.272 14.412"
         sodipodi:nodetypes="ccccc"
         style="fill-rule:evenodd;fill:url(#radialGradient4463)"
         inkscape:connector-curvature="0" />
      <path
         id="path4220"
         d="m1299.7 620.48-26.785 6.9244-57.299-37.224 84.746-15.925"
         sodipodi:nodetypes="cccc"
         style="fill-rule:evenodd;fill:url(#radialGradient4465)"
         inkscape:connector-curvature="0" />
      <path
         id="path4150"
         style="fill-rule:evenodd;fill:#b3df00"
         inkscape:connector-curvature="0"
         d="m1304.7 619.29-4.6549 1.1897" />
      <path
         id="path4166"
         d="m1365.5 613.51-111.62 49.721s-26.609-5.3117-33.158-15.627c-9.0952-14.325-0.051-46.906-0.051-46.906l79.543-16.237z"
         sodipodi:nodetypes="ccsccc"
         style="fill-rule:evenodd;fill:url(#radialGradient4467)"
         inkscape:connector-curvature="0" />
      <path
         id="path4289"
         style="stroke:#aaaaaa;stroke-width:.85822;fill:none"
         inkscape:connector-curvature="0"
         d="m1225.5 634.07 29.72 26.556m-29.656-34.536 30.899 25.374m-31.154-32.32 31.45 23.749m-31.151-31.169 31.665 22.544m-31.648-29.468 31.957 21.867m-32.081 3.274 29.72 26.556m-29.656-34.536 30.899 25.374m-31.154-32.32 31.45 23.749m-31.151-31.169 31.665 22.544m-31.648-29.468 31.957 21.867" />
      <g
         id="g4324"
         transform="matrix(.98716 0 0 .94388 16.688 38.889)">
        <path
           id="path4326"
           d="m1277.1 737.59c33.854-13.917 67.708-27.833 101.56-41.75-7.0056-4.7994-13.47-11.162-20.812-14.989-44.917-0.89958-89.834-1.7992-134.75-2.6987 18 19.812 36 39.625 54 59.438z"
           style="opacity:.2;fill-opacity:.40244;fill:#333333"
           inkscape:connector-curvature="0" />
        <path
           id="path4330"
           d="m1276.7 739.19c34.875-14.333 69.75-28.667 104.62-43-7.7477-5.355-14.945-12.297-23.031-16.676-46.115-0.93077-92.229-1.8616-138.34-2.7923 18.917 20.823 37.833 41.646 56.75 62.469z"
           style="opacity:.2;fill-opacity:.40244;fill:#333333"
           inkscape:connector-curvature="0" />
        <path
           id="path4334"
           sodipodi:nodetypes="ccccc"
           style="opacity:.2;fill-opacity:.40244;fill:#333333"
           inkscape:connector-curvature="0"
           d="m1216.8 675.29 59.543 65.553 107.79-44.277-24.339-18.401z" />
        <path
           id="path4336"
           d="m1215.8 676.22c20.079 22.078 40.112 44.199 60.219 66.25 36.985-15.146 73.953-30.339 110.91-45.562-9.057-6.6071-17.858-13.96-27.062-20.125-48.729-0.97863-97.458-1.9615-146.19-2.9375 0.7083 0.79167 1.4167 1.5833 2.125 2.375z"
           style="opacity:.2;fill-opacity:.40244;fill:#333333"
           inkscape:connector-curvature="0" />
        <path
           id="path4340"
           d="m1214.8 677.12c20.277 22.337 40.59 44.642 60.844 67 38-15.639 76.007-31.264 114.03-46.844-9.9916-7.113-19.484-15.609-29.781-21.875-49.802-0.99876-99.604-2.0076-149.41-3l4.3125 4.7188z"
           style="opacity:.2;fill-opacity:.40244;fill:#333333"
           inkscape:connector-curvature="0" />
      </g>
      <path
         id="path4402"
         d="m1230.1 603.79-0.297 34.714"
         sodipodi:nodetypes="cc"
         style="stroke-opacity:.27642;stroke:#000000;stroke-linecap:round;stroke-width:1.005;fill:none"
         inkscape:connector-curvature="0" />
      <path
         id="path4152"
         d="m1215.7 590.22 13.256 8.6303v38.043l24.165 21.265v-43.635l19.884 12.911v105.64l-57.306-58.893v-83.956z"
         style="fill-rule:evenodd;fill:url(#radialGradient4469)"
         inkscape:connector-curvature="0" />
      <path
         id="path4154"
         style="fill-rule:evenodd;fill:url(#radialGradient4471)"
         inkscape:connector-curvature="0"
         d="m1369.1 602.83-96.174 24.581v105.67l96.174-38.912z" />
      <path
         id="path4191"
         d="m1368.7 602.82-95.35 24.456-19.612-12.552"
         sodipodi:nodetypes="ccc"
         style="color:#000000;stroke:#cdf700;stroke-linecap:round;stroke-width:1px;fill:none"
         inkscape:connector-curvature="0" />
      <path
         id="path4193"
         d="m1216.3 589.97 84.495-16.036 67.87 28.77"
         sodipodi:nodetypes="ccc"
         style="stroke:#cdf700;stroke-linecap:round;stroke-width:1px;fill:none"
         inkscape:connector-curvature="0" />
      <path
         id="path4195"
         d="m1229.3 599.09-13.136-9.0353"
         sodipodi:nodetypes="cc"
         style="color:#000000;stroke:#cdf700;stroke-linecap:round;stroke-width:1px;fill:none"
         inkscape:connector-curvature="0" />
      <path
         id="path4275"
         style="color:#000000;stroke:#cdf700;stroke-linecap:round;stroke-width:1px;fill:none"
         inkscape:connector-curvature="0"
         d="m1252.8 657.96-23.888-21.076" />
      <path
         id="path4197"
         style="color:#000000;stroke:#687e00;stroke-linecap:round;stroke-width:1px;fill:none"
         inkscape:connector-curvature="0"
         d="m1228.9 636.88 0.3922-38.047" />
    </g>
  </g>
  <metadata
     id="metadata36">
    <rdf:RDF>
      <cc:Work>
        <dc:format>image/svg+xml</dc:format>
        <dc:type
           rdf:resource="http://purl.org/dc/dcmitype/StillImage" />
        <cc:license
           rdf:resource="http://creativecommons.org/publicdomain/zero/1.0/" />
        <dc:publisher>
          <cc:Agent
             rdf:about="http://openclipart.org/">
            <dc:title>Openclipart</dc:title>
          </cc:Agent>
        </dc:publisher>
        <dc:title>notebox</dc:title>
        <dc:date>2011-08-04T17:40:58</dc:date>
        <dc:description />
        <dc:source>https://openclipart.org/detail/153625/notebox-by-chrisdesign</dc:source>
        <dc:creator>
          <cc:Agent>
            <dc:title>Chrisdesign</dc:title>
          </cc:Agent>
        </dc:creator>
        <dc:subject>
          <rdf:Bag>
            <rdf:li>box</rdf:li>
            <rdf:li>note</rdf:li>
            <rdf:li>office</rdf:li>
            <rdf:li>paper</rdf:li>
          </rdf:Bag>
        </dc:subject>
      </cc:Work>
      <cc:License
         rdf:about="http://creativecommons.org/publicdomain/zero/1.0/">
        <cc:permits
           rdf:resource="http://creativecommons.org/ns#Reproduction" />
        <cc:permits
           rdf:resource="http://creativecommons.org/ns#Distribution" />
        <cc:permits
           rdf:resource="http://creativecommons.org/ns#DerivativeWorks" />
      </cc:License>
    </rdf:RDF>
  </metadata>
</svg>
