<?xml version="1.0" encoding="UTF-8" standalone="no"?>
<svg
   xmlns:dc="http://purl.org/dc/elements/1.1/"
   xmlns:cc="http://creativecommons.org/ns#"
   xmlns:rdf="http://www.w3.org/1999/02/22-rdf-syntax-ns#"
   xmlns:svg="http://www.w3.org/2000/svg"
   xmlns="http://www.w3.org/2000/svg"
   id="svg29"
   height="48"
   width="48"
   version="1.1">
  <metadata
     id="metadata33">
    <rdf:RDF>
      <cc:Work
         rdf:about="">
        <dc:format>image/svg+xml</dc:format>
        <dc:type
           rdf:resource="http://purl.org/dc/dcmitype/StillImage" />
        <dc:title></dc:title>
      </cc:Work>
    </rdf:RDF>
  </metadata>
  <defs
     id="defs17">
    <linearGradient
       gradientUnits="userSpaceOnUse"
       id="linearGradient4580"
       y2="16.881635"
       x2="20.907845"
       y1="35.076645"
       x1="21.987764">
      <stop
         id="stop2"
         offset="0"
         style="stop-color:#fffeff;stop-opacity:0.33333334" />
      <stop
         id="stop4"
         offset="1"
         style="stop-color:#fffeff;stop-opacity:0.21568628" />
    </linearGradient>
    <linearGradient
       gradientUnits="userSpaceOnUse"
       id="linearGradient4586"
       y2="6.5410110"
       x2="19.071495"
       y1="67.288064"
       x1="36.917976">
      <stop
         id="stop7"
         offset="0"
         style="stop-color:#a40000;stop-opacity:1" />
      <stop
         id="stop9"
         offset="1"
         style="stop-color:#ff1717;stop-opacity:1" />
    </linearGradient>
    <linearGradient
       gradientUnits="userSpaceOnUse"
       id="linearGradient4583"
       y2="-7.5626706"
       x2="20.064686"
       y1="54.835984"
       x1="43.93581">
      <stop
         id="stop12"
         offset="0"
         style="stop-color:#ffe69b;stop-opacity:1" />
      <stop
         id="stop14"
         offset="1"
         style="stop-color:#ffffff;stop-opacity:1" />
    </linearGradient>
  </defs>
  <g
     id="g27">
    <rect
       id="rect19"
       style="fill:url(#linearGradient4586);fill-opacity:1;stroke:#b20000;stroke-width:1;stroke-opacity:1"
       y="2.5"
       x="2.5"
       ry="10"
       rx="10"
       height="43"
       width="43" />
    <rect
       id="rect21"
       style="opacity:0.35;fill-opacity:0;stroke:url(#linearGradient4583);stroke-width:1;stroke-opacity:1"
       y="3.5"
       x="3.5"
       ry="9"
       rx="9"
       height="41"
       width="41" />
    <path
       id="path23"
       style="fill:url(#linearGradient4580);fill-opacity:1;fill-rule:nonzero;stroke:none"
       d="m 12.5,4 c -4.709,0 -8.5,3.791 -8.5,8.5 l 0,12.0625 c 7.681331,7.681331 12.536848,5.141965 20.6875,-1.375 C 33.03282,16.514886 36.318669,30.493831 44,22.8125 L 44,12.5 C 44,7.791 40.209,4 35.5,4 l -23,0 z" />
    <path
       id="path25"
       style="fill:none;stroke:#efefef;stroke-width:4.78907108;stroke-linecap:round;stroke-opacity:1"
       d="m 24.015964,10.375044 0,15.644355 m -8.63626,-7.774287 c -1.851768,2.059308 -2.985177,4.789089 -2.985177,7.774287 0,6.401414 5.188141,11.605557 11.605473,11.605557 6.401368,0 11.605473,-5.188179 11.605473,-11.605557 0,-2.985198 -1.133409,-5.714979 -2.985177,-7.774287" />
  </g>
</svg>
